<svg xmlns="http://www.w3.org/2000/svg" xmlns:xlink="http://www.w3.org/1999/xlink" width="50" zoomAndPan="magnify" viewBox="0 0 37.5 37.499999" height="50" preserveAspectRatio="xMidYMid meet" version="1.0"><defs><g/><clipPath id="2b54f50c08"><path d="M 0 0 L 37.007812 0 L 37.007812 37.007812 L 0 37.007812 Z M 0 0 " clip-rule="nonzero"/></clipPath></defs><g clip-path="url(#2b54f50c08)"><path fill="#ffffff" d="M 0 0 L 37.007812 0 L 37.007812 37.007812 L 0 37.007812 Z M 0 0 " fill-opacity="1" fill-rule="nonzero"/><path fill="#ffffff" d="M 0 0 L 37.007812 0 L 37.007812 37.007812 L 0 37.007812 Z M 0 0 " fill-opacity="1" fill-rule="nonzero"/></g><g fill="#000000" fill-opacity="1"><g transform="translate(11.683019, 24.763734)"><g><path d="M 24.46875 4.640625 C 22.632812 5.566406 20.769531 5.71875 18.875 5.09375 C 16.863281 4.445312 15.132812 3.078125 13.6875 0.984375 C 12.90625 -0.128906 12.238281 -1.421875 11.6875 -2.890625 L 10.875 -5.046875 L 4.890625 -5.046875 L 3.546875 -1.84375 C 3.460938 -1.625 3.421875 -1.445312 3.421875 -1.3125 C 3.421875 -1.175781 3.453125 -1.03125 3.515625 -0.875 C 3.578125 -0.71875 3.703125 -0.570312 3.890625 -0.4375 C 4.085938 -0.3125 4.304688 -0.25 4.546875 -0.25 L 4.75 -0.25 L 4.75 0 L -0.671875 0 L -0.671875 -0.25 L -0.453125 -0.25 C -0.0664062 -0.25 0.3125 -0.363281 0.6875 -0.59375 C 1.070312 -0.820312 1.394531 -1.164062 1.65625 -1.625 L 7.296875 -14.515625 C 6.640625 -15.992188 5.941406 -17.015625 5.203125 -17.578125 C 4.578125 -18.046875 3.976562 -18.28125 3.40625 -18.28125 C 2.84375 -18.28125 2.316406 -18.195312 1.828125 -18.03125 L 1.78125 -18.28125 C 3 -18.90625 4.164062 -19.21875 5.28125 -19.21875 C 6.65625 -19.21875 7.894531 -18.679688 9 -17.609375 C 10.082031 -16.535156 11.035156 -15 11.859375 -13 L 15.53125 -3.921875 C 16.914062 -0.492188 18.332031 1.859375 19.78125 3.140625 C 20.375 3.660156 20.984375 4.019531 21.609375 4.21875 C 22.234375 4.425781 22.757812 4.53125 23.1875 4.53125 C 23.625 4.53125 24.046875 4.476562 24.453125 4.375 Z M 5.328125 -6.125 L 10.484375 -6.125 L 8.71875 -10.8125 C 8.632812 -11.050781 8.515625 -11.375 8.359375 -11.78125 C 8.210938 -12.195312 8.113281 -12.492188 8.0625 -12.671875 Z M 5.328125 -6.125 "/></g></g></g><g fill="#000000" fill-opacity="1"><g transform="translate(5.174074, 26.738893)"><g><path d="M -1.703125 -1.203125 C -1.472656 -1.347656 -1.253906 -1.394531 -1.046875 -1.34375 C -0.835938 -1.300781 -0.660156 -1.160156 -0.515625 -0.921875 C -0.421875 -0.773438 -0.367188 -0.613281 -0.359375 -0.4375 C -0.347656 -0.269531 -0.378906 -0.117188 -0.453125 0.015625 C -0.535156 0.148438 -0.644531 0.257812 -0.78125 0.34375 C -0.925781 0.425781 -1.070312 0.46875 -1.21875 0.46875 C -1.363281 0.46875 -1.503906 0.425781 -1.640625 0.34375 C -1.785156 0.269531 -1.90625 0.15625 -2 0 C -2.0625 -0.09375 -2.109375 -0.191406 -2.140625 -0.296875 C -2.171875 -0.410156 -2.179688 -0.515625 -2.171875 -0.609375 L -1.921875 -0.828125 L -1.90625 -0.8125 C -2.007812 -0.707031 -2.0625 -0.582031 -2.0625 -0.4375 C -2.0625 -0.300781 -2.019531 -0.171875 -1.9375 -0.046875 C -1.832031 0.140625 -1.675781 0.253906 -1.46875 0.296875 C -1.257812 0.347656 -1.054688 0.316406 -0.859375 0.203125 C -0.660156 0.0859375 -0.535156 -0.0703125 -0.484375 -0.28125 C -0.429688 -0.5 -0.460938 -0.707031 -0.578125 -0.90625 C -0.703125 -1.113281 -0.867188 -1.238281 -1.078125 -1.28125 C -1.285156 -1.332031 -1.507812 -1.289062 -1.75 -1.15625 L -1.765625 -1.171875 C -1.742188 -1.179688 -1.722656 -1.191406 -1.703125 -1.203125 Z M -1.703125 -1.203125 "/></g></g></g><g fill="#000000" fill-opacity="1"><g transform="translate(4.064575, 24.849973)"><g><path d="M -0.5625 -1.65625 L -0.578125 -1.671875 L -0.546875 -1.6875 L -0.390625 -1.203125 L -0.421875 -1.1875 L -0.4375 -1.21875 C -0.4375 -1.25 -0.453125 -1.273438 -0.484375 -1.296875 C -0.523438 -1.328125 -0.5625 -1.335938 -0.59375 -1.328125 L -1.203125 -1.125 L -0.921875 -0.234375 L -0.3125 -0.4375 C -0.101562 -0.5 0.0507812 -0.492188 0.15625 -0.421875 C 0.207031 -0.390625 0.253906 -0.335938 0.296875 -0.265625 L 0.28125 -0.25 C 0.21875 -0.300781 0.144531 -0.332031 0.0625 -0.34375 C -0.0195312 -0.351562 -0.128906 -0.335938 -0.265625 -0.296875 L -1.546875 0.125 C -1.585938 0.132812 -1.613281 0.160156 -1.625 0.203125 C -1.644531 0.242188 -1.648438 0.285156 -1.640625 0.328125 L -1.625 0.359375 L -1.65625 0.359375 L -1.828125 -0.15625 L -1.796875 -0.15625 L -1.78125 -0.125 C -1.769531 -0.0820312 -1.742188 -0.0507812 -1.703125 -0.03125 C -1.671875 -0.0078125 -1.632812 -0.00390625 -1.59375 -0.015625 L -0.984375 -0.21875 L -1.265625 -1.109375 L -1.828125 -0.921875 C -2.035156 -0.859375 -2.1875 -0.859375 -2.28125 -0.921875 C -2.351562 -0.953125 -2.410156 -1.007812 -2.453125 -1.09375 L -2.453125 -1.109375 C -2.390625 -1.054688 -2.3125 -1.023438 -2.21875 -1.015625 C -2.125 -1.003906 -2.007812 -1.019531 -1.875 -1.0625 L -0.640625 -1.46875 C -0.609375 -1.476562 -0.582031 -1.5 -0.5625 -1.53125 C -0.550781 -1.570312 -0.550781 -1.613281 -0.5625 -1.65625 Z M -0.5625 -1.65625 "/></g></g></g><g fill="#000000" fill-opacity="1"><g transform="translate(3.435372, 22.763876)"><g><path d="M 0.171875 -2.3125 C 0.203125 -2.25 0.21875 -2.191406 0.21875 -2.140625 C 0.226562 -2.085938 0.226562 -2.039062 0.21875 -2 C 0.21875 -1.957031 0.207031 -1.910156 0.1875 -1.859375 C 0.175781 -1.804688 0.160156 -1.757812 0.140625 -1.71875 C 0.117188 -1.675781 0.0976562 -1.632812 0.078125 -1.59375 C 0.015625 -1.507812 -0.046875 -1.4375 -0.109375 -1.375 C -0.171875 -1.320312 -0.285156 -1.195312 -0.453125 -1 C -0.617188 -0.8125 -0.726562 -0.6875 -0.78125 -0.625 C -0.84375 -0.5625 -0.878906 -0.515625 -0.890625 -0.484375 L -0.90625 -0.46875 C -0.914062 -0.5625 -0.921875 -0.625 -0.921875 -0.65625 C -0.929688 -0.6875 -0.941406 -0.71875 -0.953125 -0.75 C -0.972656 -0.789062 -0.992188 -0.820312 -1.015625 -0.84375 C -1.085938 -0.925781 -1.191406 -0.960938 -1.328125 -0.953125 C -1.441406 -0.941406 -1.53125 -0.90625 -1.59375 -0.84375 C -1.65625 -0.78125 -1.679688 -0.703125 -1.671875 -0.609375 L -1.640625 -0.3125 L -0.21875 -0.46875 C -0.175781 -0.46875 -0.144531 -0.484375 -0.125 -0.515625 C -0.101562 -0.554688 -0.09375 -0.597656 -0.09375 -0.640625 L -0.09375 -0.671875 L -0.0625 -0.671875 L -0.015625 -0.140625 L -0.046875 -0.140625 L -0.046875 -0.171875 C -0.0546875 -0.210938 -0.0703125 -0.242188 -0.09375 -0.265625 C -0.125 -0.296875 -0.160156 -0.3125 -0.203125 -0.3125 L -1.53125 -0.171875 C -1.570312 -0.171875 -1.601562 -0.148438 -1.625 -0.109375 C -1.65625 -0.078125 -1.664062 -0.0390625 -1.65625 0 L -1.65625 0.03125 L -1.6875 0.03125 L -1.75 -0.625 C -1.769531 -0.757812 -1.742188 -0.875 -1.671875 -0.96875 C -1.597656 -1.0625 -1.492188 -1.113281 -1.359375 -1.125 C -1.234375 -1.144531 -1.117188 -1.117188 -1.015625 -1.046875 C -0.921875 -0.984375 -0.867188 -0.894531 -0.859375 -0.78125 C -0.804688 -0.832031 -0.742188 -0.898438 -0.671875 -0.984375 C -0.398438 -1.273438 -0.226562 -1.460938 -0.15625 -1.546875 C -0.0820312 -1.640625 -0.0234375 -1.71875 0.015625 -1.78125 C 0.0664062 -1.851562 0.0976562 -1.910156 0.109375 -1.953125 C 0.148438 -2.054688 0.164062 -2.15625 0.15625 -2.25 C 0.15625 -2.269531 0.15625 -2.289062 0.15625 -2.3125 Z M 0.171875 -2.3125 "/></g></g></g><g fill="#000000" fill-opacity="1"><g transform="translate(3.290587, 20.952535)"><g><path d="M 0.015625 -0.765625 L 0.015625 -0.796875 L 0.046875 -0.796875 L 0.015625 -0.28125 L -0.015625 -0.28125 L -0.015625 -0.3125 C -0.015625 -0.351562 -0.0234375 -0.390625 -0.046875 -0.421875 C -0.0664062 -0.453125 -0.0976562 -0.472656 -0.140625 -0.484375 L -1.59375 -0.5625 L -1.59375 -0.296875 C -1.59375 -0.140625 -1.535156 -0.0546875 -1.421875 -0.046875 C -1.378906 -0.046875 -1.34375 -0.0546875 -1.3125 -0.078125 C -1.28125 -0.0976562 -1.265625 -0.140625 -1.265625 -0.203125 L -1.25 -0.203125 C -1.25 -0.179688 -1.25 -0.15625 -1.25 -0.125 C -1.25 -0.0625 -1.273438 -0.015625 -1.328125 0.015625 C -1.359375 0.0351562 -1.394531 0.046875 -1.4375 0.046875 C -1.570312 0.0351562 -1.644531 -0.0703125 -1.65625 -0.28125 C -1.65625 -0.28125 -1.65625 -0.359375 -1.65625 -0.515625 C -1.664062 -0.679688 -1.675781 -0.804688 -1.6875 -0.890625 L -1.65625 -0.90625 C -1.65625 -0.832031 -1.632812 -0.78125 -1.59375 -0.75 C -1.5625 -0.726562 -1.515625 -0.710938 -1.453125 -0.703125 L -0.140625 -0.640625 C -0.0976562 -0.628906 -0.0625 -0.632812 -0.03125 -0.65625 C -0.0078125 -0.6875 0.00390625 -0.722656 0.015625 -0.765625 Z M 0.015625 -0.765625 "/></g></g></g><g fill="#000000" fill-opacity="1"><g transform="translate(3.361636, 19.753617)"><g><path d="M -0.5625 -0.40625 C -0.46875 -0.300781 -0.363281 -0.238281 -0.25 -0.21875 C -0.101562 -0.1875 0.0195312 -0.222656 0.125 -0.328125 C 0.195312 -0.390625 0.242188 -0.46875 0.265625 -0.5625 C 0.285156 -0.65625 0.28125 -0.738281 0.25 -0.8125 C 0.207031 -0.957031 0.113281 -1.050781 -0.03125 -1.09375 C -0.0390625 -1.09375 -0.0507812 -1.097656 -0.0625 -1.109375 C -0.125 -1.117188 -0.191406 -1.113281 -0.265625 -1.09375 C -0.335938 -1.070312 -0.410156 -1.035156 -0.484375 -0.984375 L -0.921875 -0.609375 C -1.003906 -0.535156 -1.097656 -0.507812 -1.203125 -0.53125 C -1.316406 -0.5625 -1.40625 -0.617188 -1.46875 -0.703125 C -1.539062 -0.796875 -1.566406 -0.90625 -1.546875 -1.03125 C -1.535156 -1.09375 -1.507812 -1.160156 -1.46875 -1.234375 L -1.453125 -1.34375 L -1.15625 -1.28125 L -1.15625 -1.25 C -1.238281 -1.257812 -1.304688 -1.242188 -1.359375 -1.203125 C -1.410156 -1.160156 -1.445312 -1.097656 -1.46875 -1.015625 C -1.488281 -0.929688 -1.476562 -0.859375 -1.4375 -0.796875 C -1.394531 -0.734375 -1.332031 -0.691406 -1.25 -0.671875 C -1.164062 -0.660156 -1.085938 -0.6875 -1.015625 -0.75 L -0.59375 -1.109375 C -0.414062 -1.253906 -0.234375 -1.304688 -0.046875 -1.265625 C 0.109375 -1.234375 0.226562 -1.15625 0.3125 -1.03125 C 0.375 -0.90625 0.382812 -0.757812 0.34375 -0.59375 C 0.320312 -0.488281 0.289062 -0.40625 0.25 -0.34375 C 0.144531 -0.207031 0.00390625 -0.140625 -0.171875 -0.140625 C -0.203125 -0.140625 -0.234375 -0.140625 -0.265625 -0.140625 C -0.304688 -0.148438 -0.351562 -0.175781 -0.40625 -0.21875 C -0.46875 -0.257812 -0.53125 -0.316406 -0.59375 -0.390625 Z M -0.5625 -0.40625 "/></g></g></g><g fill="#000000" fill-opacity="1"><g transform="translate(3.687227, 18.225127)"><g><path d="M -1.171875 -0.3125 C -1.242188 -0.28125 -1.304688 -0.273438 -1.359375 -0.296875 C -1.410156 -0.316406 -1.453125 -0.347656 -1.484375 -0.390625 C -1.515625 -0.429688 -1.535156 -0.488281 -1.546875 -0.5625 C -1.554688 -0.632812 -1.546875 -0.703125 -1.515625 -0.765625 L -1.15625 -1.703125 C -1.132812 -1.742188 -1.113281 -1.789062 -1.09375 -1.84375 C -1.082031 -1.90625 -1.078125 -1.953125 -1.078125 -1.984375 L -0.796875 -1.859375 L -0.8125 -1.84375 L -0.84375 -1.859375 C -0.882812 -1.878906 -0.921875 -1.878906 -0.953125 -1.859375 C -0.992188 -1.835938 -1.019531 -1.8125 -1.03125 -1.78125 L -1.203125 -1.359375 L 0.140625 -0.828125 C 0.179688 -0.804688 0.226562 -0.816406 0.28125 -0.859375 C 0.300781 -0.878906 0.316406 -0.90625 0.328125 -0.9375 L 0.34375 -0.953125 L 0.375 -0.9375 L 0.171875 -0.453125 L 0.140625 -0.46875 L 0.15625 -0.5 C 0.175781 -0.53125 0.175781 -0.566406 0.15625 -0.609375 C 0.144531 -0.648438 0.125 -0.675781 0.09375 -0.6875 L -1.25 -1.21875 L -1.4375 -0.734375 C -1.488281 -0.617188 -1.484375 -0.519531 -1.421875 -0.4375 C -1.398438 -0.394531 -1.367188 -0.363281 -1.328125 -0.34375 C -1.285156 -0.332031 -1.238281 -0.332031 -1.1875 -0.34375 Z M -1.171875 -0.3125 "/></g></g></g><g fill="#000000" fill-opacity="1"><g transform="translate(4.3604, 16.623503)"><g><path d="M 0.359375 -0.671875 L 0.375 -0.703125 L 0.40625 -0.6875 L 0.140625 -0.25 L 0.109375 -0.265625 L 0.125 -0.28125 C 0.144531 -0.320312 0.148438 -0.363281 0.140625 -0.40625 C 0.140625 -0.445312 0.125 -0.476562 0.09375 -0.5 L -1.171875 -1.234375 L -1.28125 -0.984375 C -1.351562 -0.847656 -1.34375 -0.75 -1.25 -0.6875 C -1.207031 -0.664062 -1.164062 -0.660156 -1.125 -0.671875 C -1.082031 -0.679688 -1.046875 -0.710938 -1.015625 -0.765625 L -1 -0.75 C -1.007812 -0.726562 -1.023438 -0.703125 -1.046875 -0.671875 C -1.078125 -0.617188 -1.125 -0.59375 -1.1875 -0.59375 C -1.226562 -0.582031 -1.265625 -0.585938 -1.296875 -0.609375 C -1.421875 -0.679688 -1.4375 -0.8125 -1.34375 -1 C -1.34375 -1 -1.304688 -1.070312 -1.234375 -1.21875 C -1.160156 -1.363281 -1.113281 -1.476562 -1.09375 -1.5625 L -1.0625 -1.5625 C -1.082031 -1.5 -1.082031 -1.445312 -1.0625 -1.40625 C -1.050781 -1.363281 -1.019531 -1.328125 -0.96875 -1.296875 L 0.171875 -0.640625 C 0.203125 -0.617188 0.234375 -0.609375 0.265625 -0.609375 C 0.304688 -0.617188 0.335938 -0.640625 0.359375 -0.671875 Z M 0.359375 -0.671875 "/></g></g></g><g fill="#000000" fill-opacity="1"><g transform="translate(4.935583, 15.586048)"><g><path d="M 1.921875 -1.6875 C 1.867188 -1.5625 1.800781 -1.46875 1.71875 -1.40625 C 1.632812 -1.351562 1.539062 -1.3125 1.4375 -1.28125 C 1.34375 -1.257812 1.238281 -1.25 1.125 -1.25 L -0.78125 -1.203125 L 0.140625 -0.421875 C 0.179688 -0.378906 0.226562 -0.367188 0.28125 -0.390625 C 0.300781 -0.398438 0.316406 -0.414062 0.328125 -0.4375 L 0.359375 -0.484375 L 0.390625 -0.46875 L 0.078125 -0.078125 L 0.046875 -0.09375 L 0.078125 -0.140625 C 0.0976562 -0.171875 0.109375 -0.203125 0.109375 -0.234375 C 0.109375 -0.273438 0.09375 -0.304688 0.0625 -0.328125 L -0.9375 -1.1875 C -0.945312 -1.195312 -0.972656 -1.203125 -1.015625 -1.203125 C -1.054688 -1.210938 -1.085938 -1.210938 -1.109375 -1.203125 C -1.128906 -1.203125 -1.160156 -1.203125 -1.203125 -1.203125 C -1.242188 -1.210938 -1.28125 -1.210938 -1.3125 -1.203125 C -1.34375 -1.203125 -1.375 -1.191406 -1.40625 -1.171875 C -1.46875 -1.171875 -1.523438 -1.15625 -1.578125 -1.125 C -1.628906 -1.09375 -1.664062 -1.0625 -1.6875 -1.03125 C -1.71875 -1.007812 -1.738281 -0.976562 -1.75 -0.9375 L -1.78125 -0.9375 C -1.75 -1.007812 -1.707031 -1.070312 -1.65625 -1.125 C -1.613281 -1.1875 -1.570312 -1.234375 -1.53125 -1.265625 C -1.488281 -1.296875 -1.429688 -1.316406 -1.359375 -1.328125 C -1.296875 -1.335938 -1.234375 -1.347656 -1.171875 -1.359375 C -1.109375 -1.367188 -1.039062 -1.375 -0.96875 -1.375 L 0.828125 -1.40625 L -0.09375 -2.203125 C -0.132812 -2.234375 -0.171875 -2.242188 -0.203125 -2.234375 C -0.234375 -2.234375 -0.265625 -2.21875 -0.296875 -2.1875 L -0.328125 -2.15625 L -0.359375 -2.171875 L -0.03125 -2.546875 L 0 -2.53125 L -0.03125 -2.5 C -0.0507812 -2.46875 -0.0625 -2.429688 -0.0625 -2.390625 C -0.0703125 -2.347656 -0.0546875 -2.3125 -0.015625 -2.28125 L 1 -1.40625 C 1.03125 -1.40625 1.066406 -1.40625 1.109375 -1.40625 C 1.148438 -1.40625 1.179688 -1.40625 1.203125 -1.40625 C 1.222656 -1.40625 1.25 -1.40625 1.28125 -1.40625 C 1.320312 -1.40625 1.351562 -1.40625 1.375 -1.40625 C 1.40625 -1.414062 1.4375 -1.421875 1.46875 -1.421875 C 1.5 -1.421875 1.523438 -1.425781 1.546875 -1.4375 C 1.566406 -1.457031 1.597656 -1.460938 1.640625 -1.453125 C 1.671875 -1.472656 1.707031 -1.5 1.75 -1.53125 C 1.789062 -1.5625 1.820312 -1.585938 1.84375 -1.609375 C 1.863281 -1.640625 1.890625 -1.671875 1.921875 -1.703125 Z M 1.921875 -1.6875 "/></g></g></g><g fill="#000000" fill-opacity="1"><g transform="translate(6.440627, 13.917572)"><g><path d="M 0.125 -0.140625 C 0.15625 -0.160156 0.175781 -0.191406 0.1875 -0.234375 C 0.195312 -0.273438 0.1875 -0.3125 0.15625 -0.34375 L -0.65625 -1.40625 C -0.675781 -1.4375 -0.707031 -1.453125 -0.75 -1.453125 C -0.789062 -1.453125 -0.828125 -1.441406 -0.859375 -1.421875 L -0.890625 -1.390625 L -0.921875 -1.421875 L -0.515625 -1.734375 C -0.484375 -1.753906 -0.445312 -1.785156 -0.40625 -1.828125 C -0.363281 -1.878906 -0.332031 -1.914062 -0.3125 -1.9375 L -0.125 -1.6875 L -0.15625 -1.671875 L -0.1875 -1.71875 C -0.21875 -1.75 -0.25 -1.765625 -0.28125 -1.765625 C -0.320312 -1.773438 -0.351562 -1.769531 -0.375 -1.75 L -0.59375 -1.578125 L -0.125 -0.984375 L 0.234375 -1.25 C 0.242188 -1.269531 0.253906 -1.296875 0.265625 -1.328125 C 0.273438 -1.367188 0.269531 -1.398438 0.25 -1.421875 L 0.234375 -1.453125 L 0.25 -1.46875 L 0.46875 -1.171875 L 0.453125 -1.15625 L 0.4375 -1.171875 C 0.414062 -1.203125 0.390625 -1.222656 0.359375 -1.234375 C 0.328125 -1.242188 0.296875 -1.238281 0.265625 -1.21875 L -0.09375 -0.9375 L 0.34375 -0.359375 L 0.75 -0.671875 C 0.84375 -0.742188 0.894531 -0.816406 0.90625 -0.890625 C 0.925781 -0.972656 0.921875 -1.066406 0.890625 -1.171875 L 0.921875 -1.1875 L 1.046875 -0.796875 L 0.109375 -0.078125 L 0.09375 -0.109375 Z M 0.125 -0.140625 "/></g></g></g><g fill="#000000" fill-opacity="1"><g transform="translate(7.835608, 12.910173)"><g/></g></g><g fill="#000000" fill-opacity="1"><g transform="translate(8.569682, 12.467542)"><g><path d="M -0.375 -1.734375 C -0.289062 -1.816406 -0.203125 -1.875 -0.109375 -1.90625 C -0.0351562 -1.9375 0.046875 -1.945312 0.140625 -1.9375 C 0.203125 -1.914062 0.273438 -1.867188 0.359375 -1.796875 C 0.429688 -1.753906 0.519531 -1.664062 0.625 -1.53125 L 1.1875 -0.859375 C 1.320312 -0.710938 1.441406 -0.597656 1.546875 -0.515625 C 1.648438 -0.441406 1.738281 -0.390625 1.8125 -0.359375 C 1.882812 -0.328125 1.953125 -0.3125 2.015625 -0.3125 C 2.085938 -0.3125 2.144531 -0.316406 2.1875 -0.328125 C 2.226562 -0.347656 2.253906 -0.367188 2.265625 -0.390625 L 2.296875 -0.359375 C 2.234375 -0.316406 2.164062 -0.28125 2.09375 -0.25 C 2.03125 -0.226562 1.957031 -0.222656 1.875 -0.234375 C 1.789062 -0.242188 1.707031 -0.257812 1.625 -0.28125 C 1.4375 -0.363281 1.25 -0.523438 1.0625 -0.765625 L 0.875 -0.984375 L 0.265625 -0.75 L 0.265625 -0.28125 C 0.273438 -0.257812 0.28125 -0.242188 0.28125 -0.234375 C 0.289062 -0.222656 0.300781 -0.207031 0.3125 -0.1875 C 0.332031 -0.175781 0.359375 -0.175781 0.390625 -0.1875 L 0.40625 -0.1875 L 0.421875 -0.15625 L -0.03125 0.015625 L -0.046875 -0.015625 L -0.015625 -0.03125 C 0.0234375 -0.0390625 0.0546875 -0.0625 0.078125 -0.09375 C 0.109375 -0.132812 0.125 -0.175781 0.125 -0.21875 L 0.171875 -1.765625 C 0.046875 -1.847656 -0.078125 -1.867188 -0.203125 -1.828125 C -0.253906 -1.804688 -0.300781 -1.78125 -0.34375 -1.75 Z M 0.28125 -0.828125 L 0.84375 -1.046875 L 0.453125 -1.5 C 0.378906 -1.582031 0.316406 -1.648438 0.265625 -1.703125 Z M 0.28125 -0.828125 "/></g></g></g><g fill="#000000" fill-opacity="1"><g transform="translate(10.376421, 11.778217)"><g><path d="M 2.546875 -0.015625 C 2.429688 0.046875 2.320312 0.0703125 2.21875 0.0625 C 2.113281 0.0507812 2.015625 0.0195312 1.921875 -0.03125 C 1.835938 -0.0820312 1.75 -0.144531 1.65625 -0.21875 L 0.203125 -1.421875 L 0.375 -0.234375 C 0.382812 -0.171875 0.421875 -0.132812 0.484375 -0.125 C 0.503906 -0.113281 0.53125 -0.109375 0.5625 -0.109375 L 0.609375 -0.125 L 0.609375 -0.09375 L 0.109375 -0.015625 L 0.109375 -0.046875 L 0.15625 -0.046875 C 0.195312 -0.0546875 0.226562 -0.078125 0.25 -0.109375 C 0.269531 -0.140625 0.273438 -0.175781 0.265625 -0.21875 L 0.078125 -1.515625 C 0.0664062 -1.535156 0.046875 -1.554688 0.015625 -1.578125 C -0.00390625 -1.609375 -0.0234375 -1.628906 -0.046875 -1.640625 C -0.0664062 -1.660156 -0.09375 -1.679688 -0.125 -1.703125 C -0.15625 -1.734375 -0.179688 -1.753906 -0.203125 -1.765625 C -0.234375 -1.785156 -0.265625 -1.804688 -0.296875 -1.828125 C -0.347656 -1.859375 -0.398438 -1.875 -0.453125 -1.875 C -0.515625 -1.882812 -0.5625 -1.882812 -0.59375 -1.875 C -0.632812 -1.875 -0.675781 -1.867188 -0.71875 -1.859375 L -0.734375 -1.875 C -0.671875 -1.914062 -0.601562 -1.941406 -0.53125 -1.953125 C -0.457031 -1.960938 -0.390625 -1.960938 -0.328125 -1.953125 C -0.273438 -1.941406 -0.21875 -1.921875 -0.15625 -1.890625 C -0.09375 -1.859375 -0.0390625 -1.828125 0 -1.796875 C 0.0507812 -1.765625 0.109375 -1.722656 0.171875 -1.671875 L 1.546875 -0.515625 L 1.375 -1.734375 C 1.363281 -1.773438 1.34375 -1.804688 1.3125 -1.828125 C 1.28125 -1.847656 1.242188 -1.859375 1.203125 -1.859375 L 1.15625 -1.84375 L 1.15625 -1.875 L 1.65625 -1.953125 L 1.65625 -1.921875 L 1.609375 -1.921875 C 1.566406 -1.910156 1.53125 -1.890625 1.5 -1.859375 C 1.476562 -1.828125 1.472656 -1.789062 1.484375 -1.75 L 1.6875 -0.40625 C 1.707031 -0.394531 1.734375 -0.375 1.765625 -0.34375 C 1.804688 -0.3125 1.832031 -0.289062 1.84375 -0.28125 C 1.851562 -0.269531 1.867188 -0.25 1.890625 -0.21875 C 1.921875 -0.195312 1.945312 -0.179688 1.96875 -0.171875 C 1.988281 -0.160156 2.007812 -0.140625 2.03125 -0.109375 C 2.0625 -0.0859375 2.085938 -0.0703125 2.109375 -0.0625 C 2.140625 -0.0625 2.164062 -0.0507812 2.1875 -0.03125 C 2.226562 -0.0195312 2.269531 -0.0078125 2.3125 0 C 2.363281 0 2.40625 0 2.4375 0 C 2.46875 -0.0078125 2.503906 -0.0195312 2.546875 -0.03125 Z M 2.546875 -0.015625 "/></g></g></g><g fill="#000000" fill-opacity="1"><g transform="translate(12.59149, 11.472605)"><g><path d="M 2.484375 0.578125 C 2.359375 0.609375 2.242188 0.609375 2.140625 0.578125 C 2.046875 0.535156 1.960938 0.484375 1.890625 0.421875 C 1.816406 0.347656 1.742188 0.265625 1.671875 0.171875 L 0.53125 -1.34375 L 0.421875 -0.140625 C 0.410156 -0.078125 0.429688 -0.03125 0.484375 0 C 0.503906 0.0078125 0.53125 0.015625 0.5625 0.015625 L 0.609375 0.015625 L 0.609375 0.046875 L 0.109375 0.015625 L 0.109375 -0.015625 L 0.15625 -0.015625 C 0.195312 -0.015625 0.234375 -0.0234375 0.265625 -0.046875 C 0.296875 -0.0664062 0.3125 -0.0976562 0.3125 -0.140625 L 0.421875 -1.453125 C 0.410156 -1.472656 0.394531 -1.5 0.375 -1.53125 C 0.363281 -1.570312 0.347656 -1.597656 0.328125 -1.609375 C 0.316406 -1.628906 0.300781 -1.65625 0.28125 -1.6875 C 0.257812 -1.71875 0.234375 -1.742188 0.203125 -1.765625 C 0.179688 -1.796875 0.15625 -1.820312 0.125 -1.84375 C 0.09375 -1.894531 0.0507812 -1.925781 0 -1.9375 C -0.0625 -1.957031 -0.109375 -1.96875 -0.140625 -1.96875 C -0.179688 -1.976562 -0.222656 -1.976562 -0.265625 -1.96875 L -0.28125 -2 C -0.207031 -2.019531 -0.132812 -2.023438 -0.0625 -2.015625 C 0.0078125 -2.015625 0.0703125 -2.003906 0.125 -1.984375 C 0.175781 -1.960938 0.226562 -1.925781 0.28125 -1.875 C 0.332031 -1.832031 0.378906 -1.789062 0.421875 -1.75 C 0.460938 -1.707031 0.503906 -1.65625 0.546875 -1.59375 L 1.640625 -0.140625 L 1.734375 -1.375 C 1.742188 -1.414062 1.734375 -1.445312 1.703125 -1.46875 C 1.679688 -1.5 1.648438 -1.519531 1.609375 -1.53125 L 1.5625 -1.53125 L 1.5625 -1.5625 L 2.0625 -1.515625 L 2.0625 -1.484375 L 2.015625 -1.5 C 1.972656 -1.5 1.9375 -1.484375 1.90625 -1.453125 C 1.875 -1.429688 1.851562 -1.398438 1.84375 -1.359375 L 1.734375 0 C 1.753906 0.0195312 1.773438 0.046875 1.796875 0.078125 C 1.828125 0.109375 1.847656 0.128906 1.859375 0.140625 C 1.867188 0.160156 1.878906 0.1875 1.890625 0.21875 C 1.910156 0.25 1.929688 0.269531 1.953125 0.28125 C 1.972656 0.300781 1.988281 0.320312 2 0.34375 C 2.019531 0.375 2.039062 0.394531 2.0625 0.40625 C 2.09375 0.425781 2.113281 0.445312 2.125 0.46875 C 2.164062 0.488281 2.207031 0.503906 2.25 0.515625 C 2.300781 0.535156 2.34375 0.546875 2.375 0.546875 C 2.40625 0.554688 2.441406 0.5625 2.484375 0.5625 Z M 2.484375 0.578125 "/></g></g></g><g fill="#000000" fill-opacity="1"><g transform="translate(4.996092, 28.510114)"><g><path d="M 17.28125 -8.359375 C 17.320312 -7.929688 17.34375 -7.394531 17.34375 -6.75 C 17.34375 -6.101562 17.210938 -5.3125 16.953125 -4.375 C 16.703125 -3.4375 16.242188 -2.613281 15.578125 -1.90625 C 14.203125 -0.4375 12.316406 0.296875 9.921875 0.296875 C 7.015625 0.296875 4.71875 -0.414062 3.03125 -1.84375 C 1.351562 -3.28125 0.515625 -5.15625 0.515625 -7.46875 C 0.515625 -9.789062 1.363281 -11.671875 3.0625 -13.109375 C 4.769531 -14.546875 7.019531 -15.265625 9.8125 -15.265625 C 10.882812 -15.265625 11.90625 -15.15625 12.875 -14.9375 C 13.84375 -14.726562 14.648438 -14.457031 15.296875 -14.125 L 15.34375 -10.4375 L 15.171875 -10.4375 C 14.921875 -11.351562 14.515625 -12.117188 13.953125 -12.734375 C 12.921875 -13.828125 11.535156 -14.375 9.796875 -14.375 C 8.054688 -14.375 6.65625 -13.753906 5.59375 -12.515625 C 4.53125 -11.273438 4 -9.628906 4 -7.578125 C 4 -5.535156 4.550781 -3.867188 5.65625 -2.578125 C 6.757812 -1.296875 8.28125 -0.632812 10.21875 -0.59375 C 12.320312 -0.59375 13.992188 -1.265625 15.234375 -2.609375 C 16.472656 -3.953125 17.09375 -5.769531 17.09375 -8.0625 C 17.09375 -8.164062 17.09375 -8.265625 17.09375 -8.359375 Z M 17.28125 -8.359375 "/></g></g></g></svg>