<svg xmlns="http://www.w3.org/2000/svg" xmlns:xlink="http://www.w3.org/1999/xlink" width="50" zoomAndPan="magnify" viewBox="0 0 37.5 37.499999" height="50" preserveAspectRatio="xMidYMid meet" version="1.0"><defs><clipPath id="a9777134d2"><path d="M 0 0 L 37.007812 0 L 37.007812 37.007812 L 0 37.007812 Z M 0 0 " clip-rule="nonzero"/></clipPath><clipPath id="b6c4ab0c19"><path d="M 8.542969 8.128906 L 28.527344 8.128906 L 28.527344 28.851562 L 8.542969 28.851562 Z M 8.542969 8.128906 " clip-rule="nonzero"/></clipPath></defs><g clip-path="url(#a9777134d2)"><path fill="#ffffff" d="M 0 0 L 37.007812 0 L 37.007812 37.007812 L 0 37.007812 Z M 0 0 " fill-opacity="1" fill-rule="nonzero"/><path fill="#ffffff" d="M 0 0 L 37.007812 0 L 37.007812 37.007812 L 0 37.007812 Z M 0 0 " fill-opacity="1" fill-rule="nonzero"/></g><g clip-path="url(#b6c4ab0c19)"><path fill="#000000" d="M 18.535156 8.542969 C 13.015625 8.542969 8.542969 12.996094 8.542969 18.488281 C 8.542969 23.980469 13.015625 28.433594 18.535156 28.433594 C 24.050781 28.433594 28.527344 23.980469 28.527344 18.488281 C 28.527344 12.996094 24.050781 8.542969 18.535156 8.542969 Z M 10.207031 18.488281 C 10.207031 13.910156 13.933594 10.199219 18.535156 10.199219 C 23.132812 10.199219 26.859375 13.910156 26.859375 18.488281 C 26.859375 22.21875 24.386719 25.375 20.980469 26.414062 C 21.074219 24.738281 21.042969 23.699219 20.882812 23.300781 C 20.71875 22.878906 20.585938 22.707031 20.503906 22.601562 C 20.449219 22.535156 20.421875 22.496094 20.421875 22.4375 C 20.421875 22.335938 20.492188 22.265625 20.632812 22.21875 C 21.859375 21.949219 22.679688 21.199219 23.097656 19.96875 C 23.679688 18.261719 22.851562 17.023438 22.515625 16.519531 C 22.488281 16.480469 22.464844 16.441406 22.445312 16.410156 C 22.183594 16.003906 22.527344 15.007812 22.933594 14.210938 C 21.546875 13.933594 21.019531 14.574219 20.714844 14.941406 C 20.589844 15.089844 20.503906 15.195312 20.414062 15.171875 C 20.332031 15.152344 20.242188 15.113281 20.136719 15.070312 C 19.835938 14.9375 19.390625 14.742188 18.535156 14.742188 C 17.472656 14.742188 16.769531 15.109375 16.664062 15.167969 C 16.652344 15.171875 16.648438 15.171875 16.648438 15.171875 C 16.09375 14.398438 15.300781 14.078125 14.273438 14.210938 C 14.558594 15.332031 14.578125 16.066406 14.339844 16.410156 C 13.976562 16.929688 13.304688 18.128906 13.828125 19.96875 C 14.351562 21.808594 16.257812 22.21875 16.621094 22.21875 L 16.625 22.21875 C 16.652344 22.226562 16.921875 22.285156 16.839844 22.507812 C 16.824219 22.570312 16.8125 22.648438 16.800781 22.742188 C 16.765625 23.035156 16.710938 23.4375 16.429688 23.566406 C 16.058594 23.738281 15.238281 23.828125 14.894531 23.617188 C 14.777344 23.546875 14.695312 23.398438 14.597656 23.21875 C 14.398438 22.859375 14.132812 22.382812 13.410156 22.160156 C 12.320312 21.824219 12.390625 22.265625 12.660156 22.375 C 12.722656 22.398438 12.800781 22.421875 12.890625 22.445312 C 13.210938 22.539062 13.671875 22.667969 13.90625 23.046875 C 13.976562 23.15625 14.046875 23.277344 14.121094 23.402344 C 14.367188 23.820312 14.628906 24.269531 14.894531 24.441406 C 15.121094 24.589844 15.664062 24.652344 16.527344 24.621094 C 16.492188 25.433594 16.472656 26.066406 16.46875 26.519531 C 12.867188 25.605469 10.207031 22.355469 10.207031 18.488281 Z M 10.207031 18.488281 " fill-opacity="0.85" fill-rule="evenodd"/></g></svg>