<svg xmlns="http://www.w3.org/2000/svg" xmlns:xlink="http://www.w3.org/1999/xlink" width="50" zoomAndPan="magnify" viewBox="0 0 37.5 37.499999" height="50" preserveAspectRatio="xMidYMid meet" version="1.0"><defs><clipPath id="20f13e1665"><path d="M 0 0 L 37.007812 0 L 37.007812 37.007812 L 0 37.007812 Z M 0 0 " clip-rule="nonzero"/></clipPath><clipPath id="e5b6d64faf"><path d="M 7.84375 7.84375 L 29.308594 7.84375 L 29.308594 29.308594 L 7.84375 29.308594 Z M 7.84375 7.84375 " clip-rule="nonzero"/></clipPath></defs><g clip-path="url(#20f13e1665)"><path fill="#ffffff" d="M 0 0 L 37.007812 0 L 37.007812 37.007812 L 0 37.007812 Z M 0 0 " fill-opacity="1" fill-rule="nonzero"/><path fill="#ffffff" d="M 0 0 L 37.007812 0 L 37.007812 37.007812 L 0 37.007812 Z M 0 0 " fill-opacity="1" fill-rule="nonzero"/></g><g clip-path="url(#e5b6d64faf)"><path fill="#000000" d="M 29.160156 18.503906 C 29.160156 19.203125 29.089844 19.894531 28.953125 20.582031 C 28.816406 21.265625 28.617188 21.933594 28.347656 22.582031 C 28.078125 23.226562 27.75 23.839844 27.363281 24.421875 C 26.972656 25.003906 26.53125 25.542969 26.039062 26.039062 C 25.542969 26.53125 25.003906 26.972656 24.421875 27.363281 C 23.839844 27.75 23.226562 28.078125 22.582031 28.347656 C 21.933594 28.617188 21.265625 28.816406 20.582031 28.953125 C 19.894531 29.089844 19.203125 29.160156 18.503906 29.160156 C 17.800781 29.160156 17.109375 29.089844 16.421875 28.953125 C 15.738281 28.816406 15.070312 28.617188 14.425781 28.347656 C 13.777344 28.078125 13.164062 27.75 12.582031 27.363281 C 12 26.972656 11.460938 26.53125 10.964844 26.039062 C 10.472656 25.542969 10.03125 25.003906 9.640625 24.421875 C 9.253906 23.839844 8.925781 23.226562 8.65625 22.582031 C 8.390625 21.933594 8.1875 21.265625 8.050781 20.582031 C 7.914062 19.894531 7.84375 19.203125 7.84375 18.503906 C 7.84375 17.800781 7.914062 17.109375 8.050781 16.421875 C 8.1875 15.738281 8.390625 15.070312 8.65625 14.425781 C 8.925781 13.777344 9.253906 13.164062 9.640625 12.582031 C 10.03125 12 10.472656 11.460938 10.964844 10.964844 C 11.460938 10.472656 12 10.03125 12.582031 9.640625 C 13.164062 9.253906 13.777344 8.925781 14.425781 8.65625 C 15.070312 8.390625 15.738281 8.1875 16.421875 8.050781 C 17.109375 7.914062 17.800781 7.84375 18.503906 7.84375 C 19.203125 7.84375 19.894531 7.914062 20.582031 8.050781 C 21.265625 8.1875 21.933594 8.390625 22.582031 8.65625 C 23.226562 8.925781 23.839844 9.253906 24.421875 9.640625 C 25.003906 10.03125 25.542969 10.472656 26.039062 10.964844 C 26.53125 11.460938 26.972656 12 27.363281 12.582031 C 27.75 13.164062 28.078125 13.777344 28.347656 14.425781 C 28.617188 15.070312 28.816406 15.738281 28.953125 16.421875 C 29.089844 17.109375 29.160156 17.800781 29.160156 18.503906 Z M 29.160156 18.503906 " fill-opacity="1" fill-rule="nonzero"/></g><path fill="#ffffff" d="M 23.890625 25.429688 L 13.074219 25.429688 C 12.871094 25.429688 12.675781 25.390625 12.492188 25.3125 C 12.304688 25.234375 12.140625 25.125 12 24.984375 C 11.855469 24.839844 11.746094 24.675781 11.671875 24.492188 C 11.59375 24.304688 11.554688 24.113281 11.554688 23.910156 L 11.554688 13.09375 C 11.554688 12.890625 11.59375 12.699219 11.671875 12.511719 C 11.746094 12.328125 11.855469 12.164062 12 12.019531 C 12.140625 11.878906 12.304688 11.769531 12.492188 11.691406 C 12.675781 11.613281 12.871094 11.574219 13.074219 11.574219 L 23.890625 11.574219 C 24.089844 11.574219 24.285156 11.613281 24.46875 11.691406 C 24.65625 11.769531 24.820312 11.878906 24.960938 12.019531 C 25.105469 12.164062 25.214844 12.328125 25.292969 12.511719 C 25.367188 12.699219 25.40625 12.890625 25.40625 13.09375 L 25.40625 23.910156 C 25.40625 24.113281 25.367188 24.304688 25.292969 24.492188 C 25.214844 24.675781 25.105469 24.839844 24.960938 24.984375 C 24.820312 25.125 24.65625 25.234375 24.46875 25.3125 C 24.285156 25.390625 24.089844 25.429688 23.890625 25.429688 Z M 13.074219 12.148438 C 12.8125 12.148438 12.589844 12.238281 12.402344 12.425781 C 12.21875 12.609375 12.125 12.832031 12.125 13.09375 L 12.125 23.910156 C 12.125 24.171875 12.21875 24.394531 12.402344 24.578125 C 12.589844 24.765625 12.8125 24.855469 13.074219 24.855469 L 23.890625 24.855469 C 24.148438 24.855469 24.375 24.765625 24.558594 24.578125 C 24.742188 24.394531 24.835938 24.171875 24.835938 23.910156 L 24.835938 13.09375 C 24.835938 12.832031 24.742188 12.609375 24.558594 12.425781 C 24.375 12.238281 24.148438 12.148438 23.890625 12.148438 Z M 13.074219 12.148438 " fill-opacity="1" fill-rule="nonzero"/><path fill="#ffffff" d="M 23.496094 24.386719 L 13.464844 24.386719 C 13.226562 24.386719 13.019531 24.300781 12.851562 24.132812 C 12.679688 23.960938 12.59375 23.757812 12.59375 23.515625 L 12.59375 13.488281 C 12.59375 13.246094 12.679688 13.042969 12.851562 12.871094 C 13.019531 12.703125 13.226562 12.617188 13.464844 12.617188 L 23.496094 12.617188 C 23.734375 12.617188 23.941406 12.703125 24.109375 12.871094 C 24.28125 13.042969 24.367188 13.246094 24.367188 13.488281 L 24.367188 23.515625 C 24.367188 23.757812 24.28125 23.960938 24.109375 24.132812 C 23.941406 24.300781 23.734375 24.386719 23.496094 24.386719 Z M 13.464844 13.1875 C 13.382812 13.1875 13.3125 13.21875 13.253906 13.277344 C 13.195312 13.335938 13.167969 13.40625 13.167969 13.488281 L 13.167969 23.515625 C 13.167969 23.601562 13.195312 23.671875 13.253906 23.726562 C 13.3125 23.785156 13.382812 23.816406 13.464844 23.816406 L 23.496094 23.816406 C 23.578125 23.816406 23.648438 23.785156 23.707031 23.726562 C 23.765625 23.671875 23.792969 23.601562 23.792969 23.515625 L 23.792969 13.488281 C 23.792969 13.40625 23.765625 13.335938 23.707031 13.277344 C 23.648438 13.21875 23.578125 13.1875 23.496094 13.1875 Z M 13.464844 13.1875 " fill-opacity="1" fill-rule="nonzero"/><path fill="#ffffff" d="M 15.328125 23.421875 L 14.121094 23.421875 C 14.042969 23.421875 13.976562 23.394531 13.917969 23.335938 C 13.863281 23.28125 13.835938 23.214844 13.835938 23.136719 L 13.835938 16.492188 C 13.835938 16.410156 13.863281 16.34375 13.917969 16.289062 C 13.976562 16.234375 14.042969 16.203125 14.121094 16.203125 L 15.328125 16.203125 C 15.410156 16.203125 15.476562 16.234375 15.53125 16.289062 C 15.589844 16.34375 15.617188 16.410156 15.617188 16.492188 L 15.617188 23.136719 C 15.617188 23.214844 15.589844 23.28125 15.53125 23.335938 C 15.476562 23.394531 15.410156 23.421875 15.328125 23.421875 Z M 14.40625 22.851562 L 15.042969 22.851562 L 15.042969 16.777344 L 14.40625 16.777344 Z M 14.699219 15.652344 C 14.410156 15.65625 14.167969 15.554688 13.96875 15.347656 C 13.777344 15.144531 13.683594 14.902344 13.683594 14.625 C 13.683594 14.03125 14.132812 13.582031 14.726562 13.582031 C 15.320312 13.582031 15.75 14.015625 15.753906 14.617188 C 15.765625 14.898438 15.675781 15.136719 15.480469 15.339844 C 15.289062 15.539062 15.007812 15.652344 14.699219 15.652344 Z M 14.726562 14.152344 C 14.449219 14.152344 14.257812 14.347656 14.257812 14.625 C 14.257812 14.886719 14.441406 15.078125 14.699219 15.078125 C 14.855469 15.078125 14.984375 15.03125 15.070312 14.941406 C 15.152344 14.855469 15.1875 14.75 15.179688 14.632812 C 15.179688 14.628906 15.179688 14.625 15.179688 14.625 C 15.179688 14.339844 15.003906 14.152344 14.726562 14.152344 Z M 15.753906 14.625 Z M 15.753906 14.625 " fill-opacity="1" fill-rule="nonzero"/><path fill="#ffffff" d="M 22.992188 23.421875 L 21.78125 23.421875 C 21.703125 23.421875 21.636719 23.394531 21.582031 23.335938 C 21.523438 23.28125 21.496094 23.214844 21.496094 23.136719 L 21.496094 19.304688 C 21.496094 18.191406 21.074219 17.628906 20.246094 17.628906 C 19.535156 17.628906 19.054688 18.148438 18.898438 18.660156 C 18.898438 18.667969 18.894531 18.671875 18.894531 18.675781 C 18.851562 18.789062 18.828125 18.960938 18.828125 19.140625 L 18.828125 23.136719 C 18.828125 23.214844 18.800781 23.28125 18.746094 23.335938 C 18.6875 23.394531 18.621094 23.421875 18.542969 23.421875 L 17.335938 23.421875 C 17.253906 23.421875 17.1875 23.394531 17.132812 23.335938 C 17.078125 23.28125 17.046875 23.214844 17.046875 23.136719 L 17.046875 18.289062 C 17.046875 17.550781 17.03125 17.019531 16.996094 16.511719 C 16.988281 16.429688 17.011719 16.355469 17.070312 16.296875 C 17.125 16.234375 17.195312 16.203125 17.28125 16.203125 L 18.351562 16.203125 C 18.53125 16.203125 18.625 16.292969 18.636719 16.472656 L 18.660156 16.835938 C 18.792969 16.703125 18.941406 16.585938 19.105469 16.484375 C 19.550781 16.203125 20.085938 16.054688 20.644531 16.054688 C 21.015625 16.054688 21.738281 16.136719 22.351562 16.6875 C 22.96875 17.234375 23.277344 18.070312 23.277344 19.167969 L 23.277344 23.136719 C 23.277344 23.214844 23.25 23.28125 23.191406 23.335938 C 23.136719 23.394531 23.070312 23.421875 22.992188 23.421875 Z M 22.070312 22.851562 L 22.703125 22.851562 L 22.703125 19.167969 C 22.703125 16.808594 21.128906 16.625 20.644531 16.625 C 19.632812 16.625 18.964844 17.214844 18.699219 17.722656 C 18.648438 17.824219 18.5625 17.875 18.445312 17.875 L 18.417969 17.875 C 18.238281 17.875 18.144531 17.785156 18.132812 17.605469 L 18.082031 16.777344 L 17.585938 16.777344 C 17.609375 17.210938 17.621094 17.679688 17.621094 18.289062 L 17.621094 22.851562 L 18.257812 22.851562 L 18.257812 19.140625 C 18.257812 18.894531 18.292969 18.664062 18.355469 18.488281 C 18.480469 18.085938 18.707031 17.75 19.035156 17.488281 C 19.386719 17.199219 19.792969 17.058594 20.246094 17.058594 C 21.40625 17.058594 22.070312 17.878906 22.070312 19.308594 Z M 22.070312 22.851562 " fill-opacity="1" fill-rule="nonzero"/></svg>